<?xml version="1.0" encoding="utf-8"?>
<!-- Generator: Adobe Illustrator 26.1.0, SVG Export Plug-In . SVG Version: 6.00 Build 0)  -->
<svg version="1.1" id="Capa_1" xmlns="http://www.w3.org/2000/svg" xmlns:xlink="http://www.w3.org/1999/xlink" x="0px" y="0px"
	 viewBox="0 0 595.28 841.89" style="enable-background:new 0 0 595.28 841.89;" xml:space="preserve">
<style type="text/css">
	.st0{fill:#660066;}
	.st1{fill:#FFFFFF;}
	.st2{fill:none;}
</style>
<g>
	<path d="M338.27,356.61c1.45-2.51,3.08-4.95,4.32-7.57c3.04-6.44,4.16-13.24,3.53-20.36c-0.66-7.41-3.02-14.17-7.69-19.95
		c-2-2.47-4.53-4.51-6.81-6.76c-0.37-0.37-0.76-0.75-1.01-1.21c-8.26-15.26-20.95-25.26-37.11-31.05
		c-5.25-1.88-10.71-2.89-16.29-3.28c-9.18-0.64-18.23,0-27.03,2.81c-12.97,4.14-23.94,11.29-32.62,21.85
		c-2.46,2.99-4.55,6.21-6.28,9.66c-0.3,0.59-0.79,1.13-1.31,1.56c-7.46,6.05-12.02,13.77-13.53,23.26
		c-1.64,10.31,0.41,19.85,6,28.64c0.5,0.79,1.11,1.53,1.67,2.29c-0.04,0.12-0.09,0.24-0.13,0.36c-2.1-0.56-4.3-0.88-6.27-1.73
		c-6.81-2.96-10.82-8.39-12.67-15.43c-1.79-6.86-1.31-13.65,1.61-20.12c2.78-6.17,7.33-10.53,13.96-12.47
		c0.64-0.19,1-0.45,1.22-1.14c2.68-8.25,7.15-15.48,12.83-21.96c7.76-8.85,17.16-15.44,28.03-19.92c6.69-2.75,13.64-4.53,20.86-5.19
		c17.21-1.57,33.2,2.1,47.85,11.29c11.08,6.95,19.74,16.19,25.6,27.93c1.25,2.51,2.07,5.23,3.16,7.82c0.2,0.48,0.69,1.02,1.17,1.17
		c9.02,2.87,13.89,9.4,15.97,18.27c1.45,6.22,1.11,12.38-1.62,18.23c-3.07,6.59-7.99,11.06-15.23,12.68
		c-0.67,0.15-1.35,0.24-2.03,0.34C338.32,356.66,338.21,356.6,338.27,356.61z"/>
	<path d="M230.9,293.83c17.79-17.59,58.01-20.66,80.05,0.08c-1.63,0.11-3.2,0.19-4.77,0.32c-1.67,0.15-3.33,0.37-5,0.5
		c-0.41,0.03-0.91-0.02-1.25-0.23c-5.87-3.59-12.28-5.63-19.03-6.68c-5.35-0.83-10.72-0.95-16.1-0.45
		c-8.17,0.77-15.9,3.03-23.05,7.13c-0.25,0.14-0.56,0.31-0.82,0.29C237.56,294.5,234.19,294.16,230.9,293.83z"/>
	<path d="M234.52,324.48c4.73,0.25,7.89,3.78,7.6,8.49c-0.25,4.11-3.91,7.51-7.91,7.34c-4.38-0.18-7.84-3.86-7.64-8.1
		C226.8,327.62,230.27,324.25,234.52,324.48z"/>
	<path d="M271.06,345.43c0.65,1.1,1.18,2.01,1.74,2.91c1.24,1.97,2.46,3.94,3.74,5.88c0.6,0.9,0.76,1.8,0.32,2.79
		c-0.88,1.97-1.62,4.03-2.69,5.9c-1.87,3.26-4.76,3.23-6.57-0.06c-1.04-1.89-1.82-3.92-2.59-5.94c-0.21-0.57-0.18-1.45,0.12-1.95"/>
</g>
<g>
	<path d="M117,395.89c17.33,0,34.46,0,51.83,0c0.06,0.83,0.17,1.52,0.17,2.21c0.01,21.91-0.01,43.83,0.07,65.74
		c0.01,2.2-0.55,3.56-2.61,4.56c-23.63,11.5-48.13,14.1-73.03,5.47c-18.55-6.43-30.96-19.94-37.07-38.57
		c-8.07-24.6-7.47-49.07,4.33-72.43c9.78-19.35,26.1-30.27,47.54-33.3c20.41-2.88,39.66,0.17,57.2,11.69
		c2.85,1.87,3.88,3.33,2.3,6.87c-2.98,6.68-5.26,13.67-7.94,20.84c-2.79-1.9-5.23-3.81-7.89-5.33c-14.42-8.23-29.8-9.48-45.44-4.81
		c-12.01,3.59-18.87,12.89-22.14,24.49c-4.22,14.99-4.08,30.03,1.92,44.71c6.01,14.73,18.6,23.29,34.57,23.63
		c7.58,0.16,14.96-0.68,21.91-3.82c1.04-0.47,2.3-1.94,2.32-2.97c0.19-8.46,0.11-16.93,0.11-25.98c-4.82,0-9.49,0-14.15,0
		c-4.58,0-9.16,0-13.98,0C117,411.23,117,403.78,117,395.89z"/>
	<path d="M417,373.89c9.71,0,28.1,0,28,0v13.93c0.55,0.33,1.01,0.66,1.46,1c0.27-0.76,0.38-1.62,0.83-2.26
		c14.3-20.65,42.87-17.81,56.42-0.88c10.07,12.58,12.92,27.34,12.38,42.94c-0.36,10.57-2.34,20.89-7.96,30.06
		c-8.79,14.35-21.13,22.43-38.6,20.52c-9.53-1.04-16.88-5.88-22.44-13.56c-0.28-0.39-0.61-0.74-0.94-1.09
		c-0.07-0.07-0.15-0.25-0.15-0.25s0,16.25,0,24.48c0,8.3,0,16.6,0,25.12c-9.8,0-19.25,0-29,0C417,467.35,417,420.79,417,373.89z
		 M444.31,425.39c0.31,0.08,0.61,0.16,0.92,0.24c0.08,7.23,0.74,14.35,4.34,20.84c3.66,6.61,9.35,9.52,16.86,9.45
		c7.58-0.07,13.33-3.22,16.35-10.1c1.92-4.38,3.32-9.18,3.9-13.91c1.15-9.42,0.5-18.77-4.58-27.22c-4.11-6.83-10.3-9.86-18.17-9.11
		c-7.35,0.71-12.64,4.78-15.05,11.59C446.79,413.04,445.79,419.3,444.31,425.39z"/>
</g>
<path class="st0" d="M399.13,352.89H370v68.51c0,0.19-0.38,0.38-0.75,0.56c-7.53-7.94-15.06-15.88-23.12-24.38
	c-8.04,7.99-15.41,15.31-23.13,22.81v-68.51h-28.69c0,9.73-0.06,18.28,0.01,26.84c0.19,21.25-0.13,42.52,0.91,63.73
	c0.6,12.28,6.41,22.95,16.14,30.94c13.83,11.36,30,13.38,46.96,10.64c23.56-3.81,40.01-22.49,40.49-46.31
	c0.46-22.85,0.23-45.71,0.3-68.56C399.14,363.7,399.13,358.24,399.13,352.89z M363.44,451.34c-10.17,10.86-26.26,9.88-35.31-1.74
	c6.1-6.54,11.98-12.84,18.11-19.41c6.19,6.19,12.07,11.97,17.76,17.93C364.47,448.61,364.09,450.65,363.44,451.34z"/>
<path d="M331.69,358.37c10.82-11.62,14.8-24.83,8.45-39.76c-5.78-13.59-16.61-21.38-31.41-21.56c-18.23-0.22-29.62,9.66-35.03,26.91
	c-1.5,0-3.06-0.06-4.63,0.02c-0.95,0.05-1.31-0.32-1.55-1.22c-1.51-5.71-4.2-10.8-8.34-15.03c-6.18-6.32-13.66-9.98-22.53-10.65
	c-9.69-0.73-18.38,1.73-25.69,8.28c-9,8.06-13.16,18.13-12.02,30.23c0.66,6.96,3.25,13.19,7.52,18.73c1.06,1.38,2.2,2.71,3.28,4.03
	c-0.07,0.14-0.1,0.22-0.14,0.28c-6.77,8.62-9.55,18.41-8.6,29.3c0.59,6.81,2.86,13.07,6.34,18.89c4.9,8.19,11.74,14.42,19.93,19.16
	c3.54,2.05,7.35,3.65,11.14,5.48c1.52-2.32,3.33-4.59,5.63-6.09c-3.45-3.83-6.16-8.1-7.95-12.96c-2.77-7.54-3.54-15.36-3.12-23.3
	c0.18-3.29,0.93-6.55,1.4-9.83c0.15-1.05,0.62-1.48,1.79-1.43c3.5,0.15,6.91-0.41,10.22-1.58c3.73-1.33,6.92-3.4,9.02-6.85
	c1.84-3.03,1.44-5.73-1.11-8.14c-0.27-0.25-0.63-0.4-1.05-0.65c4.27-2.98,7.62-6.29,10.12-10.39c2.81-4.59,4.32-9.63,4.86-14.96
	c0.05-0.53,0.06-0.99,0.8-0.97c1.29,0.04,2.58,0.01,3.93,0.01c1.05,10.95,5.82,19.75,14.6,26.06c-0.05,0.07-0.11,0.14-0.17,0.21
	c-0.72,0.94-1.52,1.78-1.97,2.78c-1.2,2.63-0.26,5.01,1.3,7.16c2.94,4.02,7.85,5.54,10.52,6.38c2.14,0.67,5.29,1.61,9.52,1.3
	c2.81-0.2,5.14-0.89,6.89-1.58c1.13-0.55,2.56-1.39,4.03-2.71c0.54-0.48,0.99-0.96,1.41-1.43c3.25-5.99,5.03-6.82,6.03-6.61
	c2.55,0.54,4.59,8.86,1.04,13.65c-0.88,1.18-1.91,1.9-2.59,2.3c0.11,1.72-0.53,3.49-1.95,4.51c0.81-0.17,1.49,0.22,1.61,0.71
	c0.1,0.39-0.17,0.76-0.24,0.85c-0.34,0.09-0.59,0.38-0.61,0.71c-0.03,0.39,0.27,0.78,0.71,0.85c-0.55,0.14-1.18,0.39-1.39,0.92
	c-0.24,0.61,0.29,1.03,0.46,2.18c0.15,1.08-0.22,1.33-0.18,2.41c0.02,0.65,0.19,1.57,0.88,2.68c-0.06,0.06-0.75,0.78-0.52,1.6
	c0.06,0.22,0.17,0.39,0.28,0.52c-0.34,1.54-0.64,3.31-0.8,5.28c-0.15,1.77-0.17,3.39-0.11,4.83c-0.01,0.61-0.03,1.22-0.04,1.83
	c-0.05,1.63-0.08,3.31-0.08,5.04c0,1.58,0.03,3.11,0.08,4.61c1.01-1.08,2.48-2.66,4.24-4.61c2.77-3.08,5.18-5.82,5.82-6.67
	c9.28-12.36,11.79-25.93,6.44-40.67C336.7,365.29,334.44,361.64,331.69,358.37z"/>
<path class="st1" d="M333.02,380.93c-0.74-6.2-2.95-11.76-6.63-16.79c-0.69-0.94-1.13-1.14-2.22-0.49c-0.27,0.16-0.55,0.3-0.82,0.46
	c-4.62,2.58-9.64,3.8-14.97,3.82c-4.05,0.01-7.95-0.66-11.7-2.3c-0.51,0.67-0.99,1.31-1.65,2.17c1.94,1.12,4.46,2.28,7.54,3
	c8.95,2.09,16.48-0.99,19.43-2.39c-0.45,0.8-0.45,0.8-1.35,2.39c0.9-1.6,0.9-1.6,1.35-2.39c-0.1,2.41-0.21,4.83-0.31,7.24
	c0.02,1.56,0.03,3.13,0.03,4.71c0,2.26-0.01,4.51-0.03,6.73c0.08,3.94,0.07,7.06,0.05,9.22c-0.02,1.92-0.05,3.31-0.05,5.98
	c0,1.67,0.02,2.52,0.03,4.85c0.01,1.93,0,3.51,0,4.56c3.45-3.55,5.58-6.99,6.85-9.4C330,399.51,334.25,391.32,333.02,380.93z"/>
<path d="M278.56,427.91c-0.5,12.44-3.92,23.87-11.68,33.67c-11.64,14.69-27.25,19.6-45.46,17.88c-22.06-2.08-38.77-20.81-41.12-43.7
	c-1.47-14.27-0.45-27.98,6.61-40.77c7.99-14.47,20.65-21.67,36.81-22.83c11.53-0.83,22.71,0.79,32.52,7.47
	c13.26,9.04,19.78,22.1,21.7,37.7C278.38,420.83,278.37,424.38,278.56,427.91z M207.35,425.36c0.32,0.08,0.64,0.16,0.96,0.24
	c0.01,9.55,1.55,16.19,5.02,21.75c6.35,10.15,20.31,11.62,28.62,2.98c5.47-5.68,7.2-12.83,7.79-20.37
	c0.72-9.03-0.25-17.77-5.12-25.68c-4.22-6.85-10.57-9.6-18.37-8.67c-6.85,0.82-11.89,4.77-14.15,11.18
	C209.99,412.79,208.9,419.15,207.35,425.36z"/>
<path class="st0" d="M233.92,358.73c-14.63,0.18-26.49-11.44-26.19-27.21c0.25-13.48,10.83-25.93,26.89-25.67
	c14.85,0.24,25.99,12.55,25.68,27.17C259.99,346.74,248.97,358.98,233.92,358.73z M234.52,324.48c-4.26-0.22-7.72,3.15-7.95,7.73
	c-0.21,4.25,3.26,7.93,7.64,8.1c4,0.16,7.66-3.23,7.91-7.34C242.41,328.25,239.25,324.73,234.52,324.48z"/>
<path class="st0" d="M307.57,358.73c-14.68-0.01-25.76-11.42-25.75-26.51c0.01-15,11.32-26.48,26.21-26.37
	c15.05,0.11,26.73,11.67,26.67,26.54C334.63,348.78,320.96,358.89,307.57,358.73z"/>
<path d="M315.63,332.38c-0.01,4.27-3.51,7.92-7.57,7.89c-4.42-0.03-7.9-3.53-7.88-7.95c0.02-4.42,3.36-7.83,7.68-7.82
	C312.21,324.51,315.64,327.98,315.63,332.38z"/>
<path class="st1" d="M216.69,362.8c5.97,3.78,12.38,5.49,19.26,5.05c2.63-0.17,5.25-0.84,7.82-1.48c1.86-0.47,1.82-0.62,2.99,1.3
	c-8.81,5.23-17.74,4.48-26.93,0.73c1.52,2.26,3.32,4.03,5.27,5.66c0.32,0.27,0.65,0.53,0.99,0.78c1.64,1.21,1.63,1.2,1.09,3.19
	c-1.73,6.35-2.29,12.8-1.88,19.38c0.49,7.84,2.3,15.34,5.58,22.48c0.03,0.05-0.02,0.14-0.06,0.48c-1.85-1.32-3.66-2.49-5.34-3.82
	c-8.87-6.98-14.39-16.04-16.06-27.19c-1.43-9.55,0.87-18.31,6.86-25.99C216.43,363.17,216.56,362.98,216.69,362.8z"/>
<path class="st1" d="M293.19,332.08c0.03-8.45,7.02-15.54,15.82-15.12c7.47,0.35,14.65,6.87,14.59,15.48
	c-0.05,7.59-7.1,15.36-16.09,15.11C299.48,347.32,293.15,340.66,293.19,332.08z M315.63,332.38c0.01-4.4-3.42-7.88-7.77-7.88
	c-4.31,0-7.66,3.41-7.68,7.82c-0.02,4.42,3.46,7.92,7.88,7.95C312.13,340.3,315.62,336.66,315.63,332.38z"/>
<path class="st2" d="M314.15,376.09"/>
<path class="st1" d="M219.86,332.05c0.03-8.45,7.02-15.54,15.82-15.12c7.47,0.35,14.65,6.87,14.59,15.48
	c-0.05,7.59-7.1,15.36-16.09,15.11C226.14,347.29,219.81,340.63,219.86,332.05z M242.29,332.36c0.01-4.4-3.42-7.88-7.77-7.88
	c-4.31,0-7.66,3.41-7.68,7.82c-0.02,4.42,3.46,7.92,7.88,7.95C238.79,340.27,242.28,336.63,242.29,332.36z"/>
</svg>
