<svg id="Capa_1" data-name="Capa 1" xmlns="http://www.w3.org/2000/svg" viewBox="0 0 811.82 837.44"><defs><style>.cls-1{fill:#fff;}</style></defs><path class="cls-1" d="M115.38,150.07C99,136.75,85.79,120.51,77,101,66.22,77,61.87,51.66,62.85,25.31,63.7,2.52,78.51-6.21,98.21,5.18c30.16,17.44,61.65,31.69,95.86,38.87,17.07,3.59,34.46,7.14,51.78,7.51,11.86.26,23.9-4.74,35.74-7.84C312.7,35.59,344,29.1,376.41,29.59s64.41,4,94.62,14.83c26.16,9.33,50.55,6.79,75.84-.58a362.39,362.39,0,0,0,86-37.73C638.41,2.77,645.33,0,651.59,0c8.52.07,14.93,9.34,15.33,20.83C668.2,58.31,658.85,92.09,631,119a30,30,0,0,1-3.7,2.53c52,62.33,54,131.94,32.86,205.12,23.05,10.78,46,21.19,68.64,32.2,22.21,10.79,44,22.12,59.07,43.05,20.6,28.67,26.2,60.88,23.21,95.09-3.26,37.17-17.17,70-44.45,95.74C732.37,625,692.4,634.62,647.31,618.2c-2.39-.87-4.84-1.57-4.86-1.58-17.26,22-32.26,44.47-50.63,63.71-18.21,19.09-39.82,34.94-60.56,52.75,2.67,1.45,6.32,3.72,10.19,5.51,21,9.75,35.4,24.84,39.21,48.42,1.21,7.49,2.25,16.82-5.3,20-5.33,2.28-13.73-.08-19.77-2.68C549,801.53,543.44,796,536.54,791c.34,5.37,1.14,9.74.79,14-1,11.69-8.57,17.47-20,15.21a44.13,44.13,0,0,1-11.85-4.18c-29.74-15.65-61.5-25.61-94.09-33-8.05-1.82-16.76-1.79-25.07-1.23-27.77,1.86-55.5,4.36-83.24,6.62-1.89.15-3.76.37-5.6.56,1.07,8,3.43,15.71,2.61,23-.61,5.41-4.24,12.83-8.58,14.79-4.09,1.84-11.52-1.21-16.31-4.07-6.47-3.87-11.82-9.6-17.37-14.3-.69,6.22-.92,11.94-2.05,17.49a14.09,14.09,0,0,1-21,9.48,93,93,0,0,1-14-10.48c-16.65-14.71-36.47-23.29-57.3-29.86-13.59-4.29-18.39-11.37-13.75-24.83,3.09-9,8.85-17,13.79-26.14-7.09-5-15.9-10.29-23.57-16.89-12.76-11-25.4-22.27-36.87-34.56-5.57-6-10-6.2-16.77-3.74-18.2,6.61-36.57,12.79-55,18.88a45,45,0,0,1-11.49,1.7C8,710.22,1.51,706.24.66,694.22a310,310,0,0,1,.66-48.46c3.15-36.14,6.6-72.28,11.25-108.25,6.48-50.08,22-97.07,51.6-138.68,4.64-6.54,6.72-12.52,5-21.29-15.64-81.09-5.81-157.31,45.26-225.11A12.41,12.41,0,0,0,115.38,150.07Zm-79,519.66c22.24-8.8,43.43-16.66,64.11-25.64,8.09-3.51,11.51-2.2,15.8,5.47a179.86,179.86,0,0,0,67.35,68.6c7.62,4.44,16.63,8.31,25.21,8.83,15.51.94,27.88,6.31,39.12,16.77A33.91,33.91,0,0,0,265.65,752c30.72,4,61.44,2.7,92.11-1.67,48-6.84,94.47-18.86,137.89-41.11C543,685,581.42,651.4,606.36,603.62c2.67-5.12,3.47-9.12-.92-13.93-4.68-5.13-8.34-11.2-13-17.65-3.65,5.69-6.37,10.45-9.58,14.86-23.17,31.84-53.22,53.22-93.06,57.47-37,3.94-67.53-10.75-94-35.86-22.09-21-44.79-41.24-67.65-62.21-3.4,2.87-7.11,6-10.82,9.1-40.7,34.15-85.33,61.29-137.74,72.87-13.52,3-28.23,1.68-42.29.77-6.57-.42-13.55-4.54-13.5-12.9,0-7.87,6.79-9.28,12.9-10.73,1.88-.44,3.74-1,5.62-1.38,61.53-13.19,116.56-39.29,161.56-83.86,12.25-12.14,22.4-26.79,31.6-41.49,7.2-11.51,2.31-18.44-11.5-18.6-6-.07-12.18,1.32-18.07,2.84-22.21,5.73-44.07,13.13-66.54,17.39-29.18,5.53-57.45,1-83.33-14.66-8.46-5.13-13.07-12.62-12.72-22.51.19-5.38,2.57-10.09,9.25-7.18,28,12.16,56.88,11.26,85.92,6.16,13.07-2.29,25.82-6.36,38.71-9.63-.12-.88-.25-1.77-.37-2.66-21.21-7.49-41.28-17.05-57.66-32.78-40.26-38.65-49.74-86.69-39.94-139.29,8.41-45.09,33.41-78.9,75.76-98.23,38.75-17.7,77.62-13.86,115.92,1.84,26.84,11,49,28.56,66.88,51,1-.33,1.47-.33,1.64-.54,1.82-2.26,3.56-4.6,5.41-6.84,20.45-24.78,45.63-41.5,78.52-42.95,48.2-2.14,82.68,21.18,107.91,60.49,2.32,3.61,4.43,7.35,6.64,11-3.72-50.43-24.14-90.37-71.7-114.84,31.51-12.63,53.55-32.36,60.29-63.82-27,9.39-53.84,19.13-81,28.09s-53.86,8.76-81.55-1.2c-20.16-7.24-42.08-10.45-63.5-13.12C354.78,63,310.88,72.75,267.54,86.27c-8.16,2.54-17.16,4.26-25.61,3.72-38.09-2.42-74.69-11.76-110-26.22-9.68-4-19.29-8.1-30.66-12.89C105,72.26,112,90.06,122.83,106.42c11,16.52,26,28.36,45.85,38.81-4.34,3.5-7.79,5.91-10.78,8.79a83.72,83.72,0,0,0-8.37,9.47C99.2,229.38,86.61,302.62,107.75,382.06c2.47,9.28,1.15,15.95-4.8,23C80.57,431.51,65.08,462,58.15,495.62c-7.75,37.63-12.91,75.84-18,114C37.57,628.72,37.63,648.22,36.38,669.73Zm409.3-391.32-3.12-.15c-2-3.57-4.17-7.06-5.94-10.74-20.26-42.21-52.24-70.36-98.27-81.23-45-10.61-87.21,5.38-108.84,42.41-20.27,34.72-23.33,71.92-8.61,109.36,12.48,31.74,37.44,50,69.87,58.75,3.29-7.5,5.83-14.49,9.33-20.95,3.64-6.69,8.21-12.87,12.35-19.25-20.5-24.64-26.64-44.14-21.3-73.48,4.11-22.59,14.19-42.12,36.46-51.88,32.71-14.33,69.23,2.11,81.58,37.48,4.91,14.06,6,29.46,9,45.43l17.12,7c10.59-8.44,19.26-17.79,29.93-23.18s23.24-6.72,34.5-9.71c3.67-10.07,6.43-21.22,11.63-31.07,8.74-16.53,23.1-27.09,42.17-26.65,18,.42,31.54,10.17,40.19,26.46,7.55,14.22,10.92,29.28,8.55,45-2,13.69,9,9.19,14.59,11,6.94,2.24,6.27-4.67,6.79-8.73,3.09-24-4.12-45.42-17.15-65.26-20.62-31.37-56.68-47.76-90.2-40.35-34.36,7.59-53,31.33-63.55,63.16C450.89,267.55,448.07,272.9,445.68,278.41ZM574.12,496c-.73-5.68-1.11-15.15-3.24-24.22-13.13-55.91-62.25-76.25-110.25-44.49-38.81,25.67-56.08,63.15-52.87,109.74,2,28.69,13.09,52.11,40.07,65.22,27.15,13.2,53.53,10.26,78.11-6.67C559.39,572.56,572.76,539.15,574.12,496Zm48.68,15.23c1,8.07,1.54,17.53,3.52,26.66C636.77,586,680.8,606.38,723.15,583c46.69-25.77,68.9-98.28,44.65-145.75-18.67-36.53-53.32-47.68-88.89-27.09C640.94,432.15,625.86,467.82,622.8,511.25ZM374.33,540.44c1.7-72.42,28.6-127.58,96.34-158.17-29.13-21.92-58.06-42.22-95.75-28.44-31.82,11.64-47.52,38-57.35,71.07,5.76,0,10.19-.25,14.58,0,34,2.23,50.9,28.42,38.18,60-4.42,11-10.79,21.17-16.58,32.32Zm225.4-89.56c24.3-40.26,25.94-47.59,75.69-77.33-60.81-38.61-96.32-29.08-134.35,7.6C573.16,399.18,580.9,408.35,599.73,450.88ZM470.16,337.27c10.72,7,21.17,14,31.81,20.63a5.84,5.84,0,0,0,5.24-.26c10-7,19.79-14.22,29.63-21.37C520.59,313.94,495.42,314.37,470.16,337.27Z"/><path class="cls-1" d="M546.07,499.79c-1.09,29.72-9.39,56.29-35,74.32-26.9,18.95-59.25,9.31-72.29-21.1-14.21-33.12-1.32-78.88,28.44-100.17,16.15-11.55,33.74-15,52.24-6.5,19.22,8.89,23.65,27,26.54,45.67C546.41,494.55,546.07,497.19,546.07,499.79Z"/><path class="cls-1" d="M646.11,505.23c1.91-29,12.31-52.49,36.91-68.73,23-15.2,51.5-6.72,62.23,18.64,15.21,36-.52,85.17-32.35,101.25-24.58,12.41-51.88,2-61-23.88C648.82,523.82,648,514.34,646.11,505.23Z"/></svg>